<svg width="1280" height="720" viewBox="0 0 1280 720" fill="none" xmlns="http://www.w3.org/2000/svg">
  <rect width="1280" height="720" rx="36" fill="#F7F3E9"/>
  <rect x="36" y="36" width="1208" height="120" rx="28" fill="#1B4332"/>
  <rect x="72" y="72" width="270" height="18" rx="9" fill="#D8F3DC" opacity="0.6"/>
  <rect x="72" y="104" width="520" height="28" rx="14" fill="#FFFFFF"/>
  <rect x="36" y="184" width="1208" height="500" rx="32" fill="#FFFFFF"/>
  <rect x="72" y="220" width="544" height="190" rx="28" fill="#EEF7F0"/>
  <rect x="664" y="220" width="544" height="190" rx="28" fill="#FFF5EE"/>
  <rect x="72" y="438" width="360" height="210" rx="28" fill="#F4F8F3"/>
  <rect x="460" y="438" width="360" height="210" rx="28" fill="#F4F8F3"/>
  <rect x="848" y="438" width="360" height="210" rx="28" fill="#F4F8F3"/>
  <rect x="108" y="264" width="120" height="28" rx="14" fill="#95D5B2"/>
  <rect x="108" y="314" width="420" height="18" rx="9" fill="#1B4332" opacity="0.85"/>
  <rect x="108" y="348" width="390" height="14" rx="7" fill="#3B4D47" opacity="0.55"/>
  <rect x="108" y="374" width="280" height="14" rx="7" fill="#3B4D47" opacity="0.35"/>
  <rect x="700" y="264" width="100" height="28" rx="14" fill="#E76F51" opacity="0.18"/>
  <rect x="700" y="314" width="420" height="18" rx="9" fill="#1B4332" opacity="0.85"/>
  <rect x="700" y="348" width="390" height="14" rx="7" fill="#3B4D47" opacity="0.55"/>
  <rect x="700" y="374" width="280" height="14" rx="7" fill="#3B4D47" opacity="0.35"/>
  <text x="72" y="680" fill="#3B4D47" font-family="Arial, sans-serif" font-size="28">README screenshot placeholder: Insights page</text>
</svg>
