<svg width="1280" height="720" viewBox="0 0 1280 720" fill="none" xmlns="http://www.w3.org/2000/svg">
  <rect width="1280" height="720" rx="36" fill="#F7F3E9"/>
  <rect x="36" y="36" width="1208" height="120" rx="28" fill="#1B4332"/>
  <rect x="72" y="72" width="300" height="18" rx="9" fill="#D8F3DC" opacity="0.6"/>
  <rect x="72" y="104" width="480" height="28" rx="14" fill="#FFFFFF"/>
  <rect x="36" y="184" width="1208" height="500" rx="32" fill="#FFFFFF"/>
  <rect x="72" y="220" width="320" height="110" rx="24" fill="#EEF7F0"/>
  <rect x="408" y="220" width="320" height="110" rx="24" fill="#EEF7F0"/>
  <rect x="744" y="220" width="320" height="110" rx="24" fill="#EEF7F0"/>
  <rect x="72" y="362" width="720" height="286" rx="28" fill="#F4F8F3"/>
  <rect x="824" y="362" width="240" height="286" rx="28" fill="#F4F8F3"/>
  <rect x="1096" y="362" width="112" height="286" rx="28" fill="#F4F8F3"/>
  <path d="M116 570C180 470 238 495 294 450C346 408 392 370 448 390C508 412 546 506 608 490C670 474 706 424 748 398" stroke="#2D6A4F" stroke-width="14" stroke-linecap="round"/>
  <rect x="876" y="420" width="132" height="18" rx="9" fill="#95D5B2"/>
  <rect x="876" y="454" width="104" height="18" rx="9" fill="#52B788"/>
  <rect x="876" y="488" width="156" height="18" rx="9" fill="#E76F51"/>
  <text x="72" y="680" fill="#3B4D47" font-family="Arial, sans-serif" font-size="28">README screenshot placeholder: Overview dashboard</text>
</svg>
